<?xml version="1.0" encoding="UTF-8" standalone="no"?>
<!DOCTYPE svg PUBLIC "-//W3C//DTD SVG 1.1//EN"
 "http://www.w3.org/Graphics/SVG/1.1/DTD/svg11.dtd">
<!-- Generated by graphviz version 2.36.0 (20140111.2315)
 -->
<!-- Title: G Pages: 1 -->
<svg width="498pt" height="1806pt"
 viewBox="0.00 0.00 498.00 1806.00" xmlns="http://www.w3.org/2000/svg" xmlns:xlink="http://www.w3.org/1999/xlink">
<g id="graph0" class="graph" transform="scale(1 1) rotate(0) translate(4 1802)">
<title>G</title>
<polygon fill="white" stroke="none" points="-4,4 -4,-1802 494,-1802 494,4 -4,4"/>
<g id="clust1" class="cluster"><title>cluster_Global</title>
<path fill="none" stroke="gray" d="M20,-44C20,-44 470,-44 470,-44 476,-44 482,-50 482,-56 482,-56 482,-1778 482,-1778 482,-1784 476,-1790 470,-1790 470,-1790 20,-1790 20,-1790 14,-1790 8,-1784 8,-1778 8,-1778 8,-56 8,-56 8,-50 14,-44 20,-44"/>
<text text-anchor="middle" x="245" y="-1777.2" font-family="Times,serif" font-size="11.00" fill="gray">Global</text>
</g>
<!-- \\F_database -->
<g id="node1" class="node"><title>\\F_database</title>
<polygon fill="none" stroke="black" points="447,-1762 363,-1762 363,-1726 447,-1726 447,-1762"/>
<text text-anchor="middle" x="405" y="-1741.2" font-family="Courier,monospace" font-size="11.00">F_database</text>
</g>
<!-- \\F_newsletter -->
<g id="node2" class="node"><title>\\F_newsletter</title>
<polygon fill="none" stroke="black" points="454,-1708 356,-1708 356,-1672 454,-1672 454,-1708"/>
<text text-anchor="middle" x="405" y="-1687.2" font-family="Courier,monospace" font-size="11.00">F_newsletter</text>
</g>
<!-- \\F_commento -->
<g id="node3" class="node"><title>\\F_commento</title>
<polygon fill="none" stroke="black" points="447,-1654 363,-1654 363,-1618 447,-1618 447,-1654"/>
<text text-anchor="middle" x="405" y="-1633.2" font-family="Courier,monospace" font-size="11.00">F_commento</text>
</g>
<!-- \\C_newsletter -->
<g id="node4" class="node"><title>\\C_newsletter</title>
<polygon fill="none" stroke="black" points="454,-1600 356,-1600 356,-1564 454,-1564 454,-1600"/>
<text text-anchor="middle" x="405" y="-1579.2" font-family="Courier,monospace" font-size="11.00">C_newsletter</text>
</g>
<!-- \\C_home -->
<g id="node5" class="node"><title>\\C_home</title>
<polygon fill="none" stroke="black" points="433.5,-1546 376.5,-1546 376.5,-1510 433.5,-1510 433.5,-1546"/>
<text text-anchor="middle" x="405" y="-1525.2" font-family="Courier,monospace" font-size="11.00">C_home</text>
</g>
<!-- \\C_registrazione -->
<g id="node6" class="node"><title>\\C_registrazione</title>
<polygon fill="none" stroke="black" points="464,-1492 346,-1492 346,-1456 464,-1456 464,-1492"/>
<text text-anchor="middle" x="405" y="-1471.2" font-family="Courier,monospace" font-size="11.00">C_registrazione</text>
</g>
<!-- \\C_fareOrdine -->
<g id="node7" class="node"><title>\\C_fareOrdine</title>
<polygon fill="none" stroke="black" points="454,-1438 356,-1438 356,-1402 454,-1402 454,-1438"/>
<text text-anchor="middle" x="405" y="-1417.2" font-family="Courier,monospace" font-size="11.00">C_fareOrdine</text>
</g>
<!-- \\C_amministratore -->
<g id="node8" class="node"><title>\\C_amministratore</title>
<polygon fill="none" stroke="black" points="467.5,-1384 342.5,-1384 342.5,-1348 467.5,-1348 467.5,-1384"/>
<text text-anchor="middle" x="405" y="-1363.2" font-family="Courier,monospace" font-size="11.00">C_amministratore</text>
</g>
<!-- \\C_visualizzazione -->
<g id="node9" class="node"><title>\\C_visualizzazione</title>
<polygon fill="none" stroke="black" points="470.5,-1330 339.5,-1330 339.5,-1294 470.5,-1294 470.5,-1330"/>
<text text-anchor="middle" x="405" y="-1309.2" font-family="Courier,monospace" font-size="11.00">C_visualizzazione</text>
</g>
<!-- \\C_homeadmin -->
<g id="node10" class="node"><title>\\C_homeadmin</title>
<polygon fill="none" stroke="black" points="450.5,-1276 359.5,-1276 359.5,-1240 450.5,-1240 450.5,-1276"/>
<text text-anchor="middle" x="405" y="-1255.2" font-family="Courier,monospace" font-size="11.00">C_homeadmin</text>
</g>
<!-- \\C_commento -->
<g id="node11" class="node"><title>\\C_commento</title>
<polygon fill="none" stroke="black" points="447,-1222 363,-1222 363,-1186 447,-1186 447,-1222"/>
<text text-anchor="middle" x="405" y="-1201.2" font-family="Courier,monospace" font-size="11.00">C_commento</text>
</g>
<!-- \\U_sessione -->
<g id="node12" class="node"><title>\\U_sessione</title>
<polygon fill="none" stroke="black" points="447,-1168 363,-1168 363,-1132 447,-1132 447,-1168"/>
<text text-anchor="middle" x="405" y="-1147.2" font-family="Courier,monospace" font-size="11.00">U_sessione</text>
</g>
<!-- \\U_singolaistanza -->
<g id="node13" class="node"><title>\\U_singolaistanza</title>
<polygon fill="none" stroke="black" points="467.5,-1114 342.5,-1114 342.5,-1078 467.5,-1078 467.5,-1114"/>
<text text-anchor="middle" x="405" y="-1093.2" font-family="Courier,monospace" font-size="11.00">U_singolaistanza</text>
</g>
<!-- \\U_operazioni -->
<g id="node14" class="node"><title>\\U_operazioni</title>
<polygon fill="none" stroke="black" points="454,-1060 356,-1060 356,-1024 454,-1024 454,-1060"/>
<text text-anchor="middle" x="405" y="-1039.2" font-family="Courier,monospace" font-size="11.00">U_operazioni</text>
</g>
<!-- \\V_visualizzazione -->
<g id="node15" class="node"><title>\\V_visualizzazione</title>
<polygon fill="none" stroke="black" points="470.5,-1006 339.5,-1006 339.5,-970 470.5,-970 470.5,-1006"/>
<text text-anchor="middle" x="405" y="-985.2" font-family="Courier,monospace" font-size="11.00">V_visualizzazione</text>
</g>
<!-- \\V_newsletter -->
<g id="node16" class="node"><title>\\V_newsletter</title>
<polygon fill="none" stroke="black" points="454,-952 356,-952 356,-916 454,-916 454,-952"/>
<text text-anchor="middle" x="405" y="-931.2" font-family="Courier,monospace" font-size="11.00">V_newsletter</text>
</g>
<!-- \\V_registrazione -->
<g id="node17" class="node"><title>\\V_registrazione</title>
<polygon fill="none" stroke="black" points="464,-898 346,-898 346,-862 464,-862 464,-898"/>
<text text-anchor="middle" x="405" y="-877.2" font-family="Courier,monospace" font-size="11.00">V_registrazione</text>
</g>
<!-- \\V_commento -->
<g id="node18" class="node"><title>\\V_commento</title>
<polygon fill="none" stroke="black" points="447,-844 363,-844 363,-808 447,-808 447,-844"/>
<text text-anchor="middle" x="405" y="-823.2" font-family="Courier,monospace" font-size="11.00">V_commento</text>
</g>
<!-- \\V_view -->
<g id="node19" class="node"><title>\\V_view</title>
<polygon fill="none" stroke="black" points="233.5,-709 176.5,-709 176.5,-673 233.5,-673 233.5,-709"/>
<text text-anchor="middle" x="205" y="-688.2" font-family="Courier,monospace" font-size="11.00">V_view</text>
</g>
<!-- \\Smarty -->
<g id="node27" class="node"><title>\\Smarty</title>
<polygon fill="none" stroke="black" points="73.5,-682 16.5,-682 16.5,-646 73.5,-646 73.5,-682"/>
<text text-anchor="middle" x="45" y="-661.2" font-family="Courier,monospace" font-size="11.00">Smarty</text>
</g>
<!-- \\V_view&#45;&gt;\\Smarty -->
<g id="edge1" class="edge"><title>\\V_view&#45;&gt;\\Smarty</title>
<path fill="none" stroke="black" d="M176.479,-686.297C150.808,-681.91 112.293,-675.329 83.7561,-670.452"/>
<polygon fill="none" stroke="black" points="84.1829,-666.974 73.7362,-668.74 83.0038,-673.874 84.1829,-666.974"/>
</g>
<!-- \\V_homeadmin -->
<g id="node20" class="node"><title>\\V_homeadmin</title>
<polygon fill="none" stroke="black" points="450.5,-790 359.5,-790 359.5,-754 450.5,-754 450.5,-790"/>
<text text-anchor="middle" x="405" y="-769.2" font-family="Courier,monospace" font-size="11.00">V_homeadmin</text>
</g>
<!-- \\V_homeadmin&#45;&gt;\\V_view -->
<g id="edge2" class="edge"><title>\\V_homeadmin&#45;&gt;\\V_view</title>
<path fill="none" stroke="black" d="M359.335,-754.381C351.548,-751.276 343.532,-748.059 336,-745 304.579,-732.237 269.023,-717.443 243.048,-706.571"/>
<polygon fill="none" stroke="black" points="244.166,-703.245 233.59,-702.608 241.461,-709.701 244.166,-703.245"/>
</g>
<!-- \\V_amministratore -->
<g id="node21" class="node"><title>\\V_amministratore</title>
<polygon fill="none" stroke="black" points="467.5,-736 342.5,-736 342.5,-700 467.5,-700 467.5,-736"/>
<text text-anchor="middle" x="405" y="-715.2" font-family="Courier,monospace" font-size="11.00">V_amministratore</text>
</g>
<!-- \\V_amministratore&#45;&gt;\\V_view -->
<g id="edge3" class="edge"><title>\\V_amministratore&#45;&gt;\\V_view</title>
<path fill="none" stroke="black" d="M342.437,-709.605C310.124,-705.199 271.572,-699.942 243.704,-696.141"/>
<polygon fill="none" stroke="black" points="243.963,-692.644 233.581,-694.761 243.017,-699.58 243.963,-692.644"/>
</g>
<!-- \\V_home -->
<g id="node22" class="node"><title>\\V_home</title>
<polygon fill="none" stroke="black" points="433.5,-682 376.5,-682 376.5,-646 433.5,-646 433.5,-682"/>
<text text-anchor="middle" x="405" y="-661.2" font-family="Courier,monospace" font-size="11.00">V_home</text>
</g>
<!-- \\V_home&#45;&gt;\\V_view -->
<g id="edge4" class="edge"><title>\\V_home&#45;&gt;\\V_view</title>
<path fill="none" stroke="black" d="M376.469,-667.754C341.988,-672.456 282.742,-680.535 243.971,-685.822"/>
<polygon fill="none" stroke="black" points="243.051,-682.415 233.616,-687.234 243.997,-689.351 243.051,-682.415"/>
</g>
<!-- \\V_fareOrdine -->
<g id="node23" class="node"><title>\\V_fareOrdine</title>
<polygon fill="none" stroke="black" points="454,-628 356,-628 356,-592 454,-592 454,-628"/>
<text text-anchor="middle" x="405" y="-607.2" font-family="Courier,monospace" font-size="11.00">V_fareOrdine</text>
</g>
<!-- \\V_fareOrdine&#45;&gt;\\V_view -->
<g id="edge5" class="edge"><title>\\V_fareOrdine&#45;&gt;\\V_view</title>
<path fill="none" stroke="black" d="M358.238,-628.056C350.797,-631.025 343.179,-634.084 336,-637 304.579,-649.763 269.023,-664.557 243.048,-675.429"/>
<polygon fill="none" stroke="black" points="241.461,-672.299 233.59,-679.392 244.166,-678.755 241.461,-672.299"/>
</g>
<!-- \\SMTP -->
<g id="node24" class="node"><title>\\SMTP</title>
<polygon fill="none" stroke="black" points="432,-574 378,-574 378,-538 432,-538 432,-574"/>
<text text-anchor="middle" x="405" y="-553.2" font-family="Courier,monospace" font-size="11.00">SMTP</text>
</g>
<!-- \\PHPMailer -->
<g id="node25" class="node"><title>\\PHPMailer</title>
<polygon fill="none" stroke="black" points="443.5,-520 366.5,-520 366.5,-484 443.5,-484 443.5,-520"/>
<text text-anchor="middle" x="405" y="-499.2" font-family="Courier,monospace" font-size="11.00">PHPMailer</text>
</g>
<!-- \\phpmailerException -->
<g id="node26" class="node"><title>\\phpmailerException</title>
<polygon fill="none" stroke="black" points="474,-466 336,-466 336,-430 474,-430 474,-466"/>
<text text-anchor="middle" x="405" y="-445.2" font-family="Courier,monospace" font-size="11.00">phpmailerException</text>
</g>
<!-- \\Exception -->
<g id="node36" class="node"><title>\\Exception</title>
<ellipse fill="none" stroke="black" cx="205" cy="-18" rx="48.9926" ry="18"/>
<text text-anchor="middle" x="205" y="-14.3" font-family="Times,serif" font-size="14.00" fill="gray">\Exception</text>
</g>
<!-- \\phpmailerException&#45;&gt;\\Exception -->
<g id="edge6" class="edge"><title>\\phpmailerException&#45;&gt;\\Exception</title>
<path fill="none" stroke="black" d="M345.48,-429.818C341.966,-427.254 338.748,-424.331 336,-421 226.332,-288.069 374.69,-172.081 264,-40 261.575,-37.1059 258.726,-34.5918 255.614,-32.408"/>
<polygon fill="none" stroke="black" points="257.288,-29.333 246.878,-27.3646 253.789,-35.3954 257.288,-29.333"/>
</g>
<!-- \\Config_File -->
<g id="node28" class="node"><title>\\Config_File</title>
<polygon fill="none" stroke="black" points="450.5,-412 359.5,-412 359.5,-376 450.5,-376 450.5,-412"/>
<text text-anchor="middle" x="405" y="-391.2" font-family="Courier,monospace" font-size="11.00">Config_File</text>
</g>
<!-- \\Smarty_Compiler -->
<g id="node29" class="node"><title>\\Smarty_Compiler</title>
<polygon fill="none" stroke="black" points="264,-655 146,-655 146,-619 264,-619 264,-655"/>
<text text-anchor="middle" x="205" y="-634.2" font-family="Courier,monospace" font-size="11.00">Smarty_Compiler</text>
</g>
<!-- \\Smarty_Compiler&#45;&gt;\\Smarty -->
<g id="edge7" class="edge"><title>\\Smarty_Compiler&#45;&gt;\\Smarty</title>
<path fill="none" stroke="black" d="M145.616,-646.977C124.944,-650.51 102.247,-654.388 83.7461,-657.55"/>
<polygon fill="none" stroke="black" points="82.9302,-654.138 73.6627,-659.273 84.1094,-661.038 82.9302,-654.138"/>
</g>
<!-- \\E_newsletter -->
<g id="node30" class="node"><title>\\E_newsletter</title>
<polygon fill="none" stroke="black" points="454,-358 356,-358 356,-322 454,-322 454,-358"/>
<text text-anchor="middle" x="405" y="-337.2" font-family="Courier,monospace" font-size="11.00">E_newsletter</text>
</g>
<!-- \\E_cliente -->
<g id="node31" class="node"><title>\\E_cliente</title>
<polygon fill="none" stroke="black" points="443.5,-304 366.5,-304 366.5,-268 443.5,-268 443.5,-304"/>
<text text-anchor="middle" x="405" y="-283.2" font-family="Courier,monospace" font-size="11.00">E_cliente</text>
</g>
<!-- \\E_prodotto -->
<g id="node32" class="node"><title>\\E_prodotto</title>
<polygon fill="none" stroke="black" points="447,-250 363,-250 363,-214 447,-214 447,-250"/>
<text text-anchor="middle" x="405" y="-229.2" font-family="Courier,monospace" font-size="11.00">E_prodotto</text>
</g>
<!-- \\E_commento -->
<g id="node33" class="node"><title>\\E_commento</title>
<polygon fill="none" stroke="black" points="447,-196 363,-196 363,-160 447,-160 447,-196"/>
<text text-anchor="middle" x="405" y="-175.2" font-family="Courier,monospace" font-size="11.00">E_commento</text>
</g>
<!-- \\E_prod_ordinato -->
<g id="node34" class="node"><title>\\E_prod_ordinato</title>
<polygon fill="none" stroke="black" points="464,-142 346,-142 346,-106 464,-106 464,-142"/>
<text text-anchor="middle" x="405" y="-121.2" font-family="Courier,monospace" font-size="11.00">E_prod_ordinato</text>
</g>
<!-- \\E_ordine -->
<g id="node35" class="node"><title>\\E_ordine</title>
<polygon fill="none" stroke="black" points="440.5,-88 369.5,-88 369.5,-52 440.5,-52 440.5,-88"/>
<text text-anchor="middle" x="405" y="-67.2" font-family="Courier,monospace" font-size="11.00">E_ordine</text>
</g>
</g>
</svg>
